<?xml version="1.0" encoding="utf-8"?>
<!-- Generator: Adobe Illustrator 25.1.0, SVG Export Plug-In . SVG Version: 6.00 Build 0)  -->
<svg version="1.1" id="레이어_1" xmlns="http://www.w3.org/2000/svg" xmlns:xlink="http://www.w3.org/1999/xlink" x="0px"
	 y="0px" viewBox="0 0 509 97" style="enable-background:new 0 0 509 97;" xml:space="preserve">
<style type="text/css">
	.st0{fill:#EA5656;}
	.st1{fill:#EA5F83;}
	.st2{fill:none;}
	.st3{fill:#E8A4C7;stroke:#E8A4C7;stroke-width:0.5;stroke-miterlimit:10;}
	.st4{font-family:'Code-Light';}
	.st5{font-size:14.6071px;}
</style>
<g>
	<path class="st0" d="M160.57,9.13l-10.28,14.12L124.61,16l18.21,19.23l-2.75,4.74l3.33-0.96l1.99-4.18l-14.92-15.03l20.56,6.1
		l7.79-9.6l2.94,11.97l10.85,2.82l-15.19,4.63l0.34,6.27l-3.5-5.03l-15.93,6.55c0,0-10.41,4.74-15.25,7.96
		c-3.62,2.41-8.64,7.24-8.64,11.52c0,2.38-0.9,8.98,22.42,22.42c0,0-11.03-7.14-15.84-13.32c-2.94-3.77-3.19-6.28-3.19-8.35
		c0-3.81,4.03-8.07,6.2-9.66c3.2-2.34,6.53-4.3,13.81-7.75c7.38-3.5,15.55-6.31,15.55-6.31l7.41,8.73l-0.93-11.65l22.16-6.48
		l-18.3-3.98L160.57,9.13z"/>
	<polygon class="st1" points="147.38,37.01 150.71,36.11 151.48,34.52 145.38,28.82 153.79,31.64 156.39,27.18 156.98,32.41 
		159.89,33.14 164.1,31.79 159.33,30.77 157.73,21.59 152.68,28.88 138.71,24.72 148.79,34.72 	"/>
	<path class="st1" d="M129.64,76.83c0,0-3.94-3.01-5.97-8.52c-0.97-2.62-0.53-6.21,2.81-9.65c2.78-2.85,5.33-4.28,8.84-6.07
		c3.64-1.87,16.61-6.86,16.61-6.86l14.45,16.95l-1.82-22.37l24.74-7.88l-4.24-1.1l-22.54,7.54l1.31,16.99L152.39,42.9
		c0,0-12.29,4.39-19.28,8.04c-3.6,1.88-10.46,5.73-11.48,11.49C120.9,66.61,124.31,72.05,129.64,76.83z"/>
	<polygon class="st1" points="172.88,42.97 174.3,45.14 173,47.29 175.17,45.88 177.4,47.29 175.96,44.86 177.4,42.8 175.14,44.35 	
		"/>
	<polygon class="st1" points="129.3,37.98 131.23,39.5 130.76,41.97 132.31,39.89 134.73,40.61 132.7,38.66 133.08,36.59 
		131.75,38.46 	"/>
	<polygon class="st1" points="166.22,12.43 168.51,14.41 168.24,17.67 170.14,15.17 173.36,16.11 170.89,13.84 171.44,10.79 
		169.49,13.03 	"/>
	<g>
		<g>
			<path class="st0" d="M211.58,27.09h15.77v4.12h-9.37v3.55H226v4.12h-8.03v6.81h-6.4V27.09z"/>
			<path class="st0" d="M235.82,27.09h7.74l7.36,18.6h-6.77l-2.75-9.04c-0.59-1.77-1.19-4.03-1.79-5.89h-0.15
				c-0.52,1.89-1.12,4.12-1.71,5.89L235,45.69h-6.54L235.82,27.09z M233.74,37.94h11.83v3.81h-11.83V37.94z"/>
			<path class="st0" d="M253.23,27.09h6.54l5.35,8.3l2.31,4.18h0.15c-0.3-2-0.82-4.81-0.82-7.1v-5.38h6.1v18.6h-6.54l-5.35-8.33
				l-2.31-4.15h-0.15c0.3,2.12,0.82,4.81,0.82,7.1v5.38h-6.1V27.09z"/>
			<path class="st0" d="M278.22,27.09h7.14c7.36,0,12.42,2.63,12.42,9.21c0,6.58-5.06,9.38-12.05,9.38h-7.51V27.09z M284.98,41.74
				c3.5,0,6.25-1.09,6.25-5.44s-2.75-5.26-6.25-5.26h-0.37v10.7H284.98z"/>
			<path class="st0" d="M301.05,36.3c0-6.12,4.54-9.56,11.23-9.56s11.23,3.46,11.23,9.56c0,6.12-4.54,9.73-11.23,9.73
				S301.05,42.43,301.05,36.3z M316.96,36.3c0-3.38-1.78-5.32-4.68-5.32s-4.69,1.95-4.69,5.32s1.79,5.49,4.69,5.49
				S316.96,39.68,316.96,36.3z"/>
			<path class="st0" d="M327.82,27.09h6.84l3.64,7.61c0.45,1.03,0.82,2.17,1.26,3.26h0.15c0.45-1.09,0.82-2.23,1.26-3.26l3.5-7.61
				h6.84v18.6h-5.8V40.2c0-1.89,0.52-4.78,0.82-6.64h-0.15l-2.01,4.46l-2.97,6.15h-3.42l-2.98-6.15l-1.93-4.46h-0.15
				c0.3,1.86,0.82,4.75,0.82,6.64v5.49h-5.73V27.09z"/>
			<path class="st0" d="M355.64,36.71h9.37v3.43h-9.37V36.71z"/>
			<path class="st0" d="M369.32,27.09h6.4v6.92h0.15l6.1-6.92h6.99l-7.21,7.55l8.63,11.04h-6.99l-5.35-7.15l-2.31,2.52v4.63h-6.4
				V27.09z"/>
		</g>
	</g>
	<rect x="204.32" y="54.91" class="st2" width="190.27" height="32.96"/>
	<text transform="matrix(1.3 0 0 1 232.0105 67.3219)" class="st3 st4 st5">Make a choice</text>
</g>
</svg>
